<?xml version="1.0" encoding="utf-8"?>
<!-- Generator: Adobe Illustrator 27.5.0, SVG Export Plug-In . SVG Version: 6.00 Build 0)  -->
<svg version="1.1" xmlns="http://www.w3.org/2000/svg" xmlns:xlink="http://www.w3.org/1999/xlink" x="0px" y="0px"
	 viewBox="0 0 500 500" style="enable-background:new 0 0 500 500;" xml:space="preserve">
<g id="Background_Complete">
	<g>
		<rect y="382.398" style="fill:#EBEBEB;" width="500" height="0.25"/>
		<rect x="52.459" y="398.494" style="fill:#EBEBEB;" width="33.122" height="0.25"/>
		<rect x="171.14" y="401.208" style="fill:#EBEBEB;" width="8.693" height="0.25"/>
		<rect x="86.582" y="389.208" style="fill:#EBEBEB;" width="25.418" height="0.25"/>
		<rect x="422" y="390.888" style="fill:#EBEBEB;" width="27.901" height="0.25"/>
		<rect x="391.471" y="390.888" style="fill:#EBEBEB;" width="21.625" height="0.25"/>
		<rect x="277.213" y="395.111" style="fill:#EBEBEB;" width="51.454" height="0.25"/>
		<path style="fill:#EBEBEB;" d="M237.014,337.8H43.915c-3.147,0-5.708-2.561-5.708-5.708V60.66c0-3.147,2.561-5.708,5.708-5.708
			h193.099c3.146,0,5.707,2.561,5.707,5.708v271.432C242.721,335.239,240.16,337.8,237.014,337.8z M43.915,55.203
			c-3.01,0-5.458,2.448-5.458,5.458v271.432c0,3.01,2.448,5.458,5.458,5.458h193.099c3.009,0,5.457-2.448,5.457-5.458V60.66
			c0-3.009-2.448-5.458-5.457-5.458H43.915z"/>
		<path style="fill:#EBEBEB;" d="M453.31,337.8H260.212c-3.147,0-5.707-2.561-5.707-5.708V60.66c0-3.147,2.561-5.708,5.707-5.708
			H453.31c3.148,0,5.708,2.561,5.708,5.708v271.432C459.019,335.239,456.458,337.8,453.31,337.8z M260.212,55.203
			c-3.009,0-5.457,2.448-5.457,5.458v271.432c0,3.01,2.448,5.458,5.457,5.458H453.31c3.01,0,5.458-2.448,5.458-5.458V60.66
			c0-3.009-2.448-5.458-5.458-5.458H260.212z"/>
	</g>
	<g>
		<g>
			<rect x="351.988" y="99.357" style="fill:#EBEBEB;" width="89.813" height="89.813"/>
			
				<rect x="349.696" y="99.357" transform="matrix(-1 -1.224647e-16 1.224647e-16 -1 701.6845 288.5275)" style="fill:#E0E0E0;" width="2.292" height="89.813"/>
			<rect x="360.289" y="107.658" style="fill:#F5F5F5;" width="73.212" height="73.212"/>
			<rect x="432.827" y="107.658" style="fill:#E0E0E0;" width="0.674" height="73.212"/>
		</g>
		<g>
			<g>
				<g>
					
						<rect x="78.298" y="144.005" transform="matrix(-1 -1.224647e-16 1.224647e-16 -1 310.7578 295.4909)" style="fill:#F0F0F0;" width="154.162" height="7.481"/>
					<rect x="56.054" y="144.005" style="fill:#E6E6E6;" width="22.244" height="7.481"/>
				</g>
			</g>
			<g>
				<g>
					<polygon style="fill:#EBEBEB;" points="85.802,151.486 95.522,151.486 88.436,162.178 85.802,162.178 					"/>
					<rect x="84.4" y="151.486" style="fill:#E6E6E6;" width="1.403" height="10.692"/>
				</g>
			</g>
			<g>
				<g>
					<polygon style="fill:#EBEBEB;" points="193.065,151.486 202.785,151.486 195.698,162.178 193.065,162.178 					"/>
					<rect x="191.663" y="151.486" style="fill:#E6E6E6;" width="1.403" height="10.692"/>
				</g>
			</g>
			<g>
				<rect x="85.911" y="109.264" style="fill:#E0E0E0;" width="12.5" height="34.741"/>
				<g>
					<g>
						<polygon style="fill:#F5F5F5;" points="91.679,144.005 162.889,144.005 156.372,96.449 85.162,96.449 						"/>
						<polygon style="fill:#FAFAFA;" points="94.296,141.005 88.601,99.45 153.755,99.45 159.449,141.005 						"/>
						<polygon style="fill:#E6E6E6;" points="91.679,144.005 89.792,144.005 83.275,96.449 85.162,96.449 						"/>
					</g>
				</g>
			</g>
			<g>
				<rect x="184.392" y="91.153" style="fill:#EBEBEB;" width="6.784" height="52.852"/>
				<rect x="187.784" y="101.597" style="fill:#EBEBEB;" width="13.938" height="2.333"/>
				<g>
					<g>
						<path style="fill:#E0E0E0;" d="M189.233,139.742h-2.897c-4.395,0-7.991-3.596-7.991-7.991v-4.796
							c0-4.395,3.596-7.991,7.991-7.991h2.897c4.395,0,7.991,3.596,7.991,7.991v4.796
							C197.224,136.146,193.628,139.742,189.233,139.742z"/>
						<path style="fill:#F0F0F0;" d="M184.018,138.374L184.018,138.374c-4.508,0-8.197-3.688-8.197-8.197v-1.649
							c0-4.508,3.689-8.197,8.197-8.197l0,0c4.508,0,8.197,3.688,8.197,8.197v1.649
							C192.215,134.686,188.527,138.374,184.018,138.374z"/>
					</g>
					<g>
						<path style="fill:#F0F0F0;" d="M218.805,138.374L218.805,138.374c4.508,0,8.197-3.688,8.197-8.197v-1.649
							c0-4.508-3.689-8.197-8.197-8.197l0,0c-4.508,0-8.197,3.688-8.197,8.197v1.649
							C210.608,134.686,214.297,138.374,218.805,138.374z"/>
						<path style="fill:#E0E0E0;" d="M213.59,139.742h2.897c4.395,0,7.991-3.596,7.991-7.991v-4.796
							c0-4.395-3.596-7.991-7.991-7.991h-2.897c-4.395,0-7.991,3.596-7.991,7.991v4.796
							C205.599,136.146,209.195,139.742,213.59,139.742z"/>
					</g>
					<path style="fill:#E0E0E0;" d="M216.539,120.48h-3v-6.814c0-6.687-5.44-12.127-12.128-12.127
						c-6.687,0-12.127,5.44-12.127,12.127v6.814h-3v-6.814c0-8.341,6.786-15.127,15.127-15.127c8.342,0,15.128,6.786,15.128,15.127
						V120.48z"/>
				</g>
				
					<rect x="199.148" y="99.023" transform="matrix(-1.836970e-16 1 -1 -1.836970e-16 303.0788 -102.699)" style="fill:#EBEBEB;" width="7.481" height="2.333"/>
			</g>
		</g>
		<g>
			<g>
				<rect x="280.601" y="76.46" style="fill:#EBEBEB;" width="54.941" height="54.941"/>
				
					<rect x="279.199" y="76.46" transform="matrix(-1 -1.224647e-16 1.224647e-16 -1 559.7994 207.8609)" style="fill:#E0E0E0;" width="1.402" height="54.941"/>
				<rect x="285.678" y="81.538" style="fill:#F5F5F5;" width="44.786" height="44.786"/>
				<rect x="330.052" y="81.538" style="fill:#E0E0E0;" width="0.412" height="44.786"/>
			</g>
		</g>
	</g>
</g>
<g id="Background_Simple" style="display:none;">
	<g style="display:inline;">
		<path style="fill:#407BFF;" d="M407.067,214.032c-3.417-57.531-33.982-98.828-78.69-91.748
			c-54.256,11.455-96.053,69.415-153.59,46.218c-81.776-48.215-107.651,69.007-93.705,101.374
			c27.018,72.555,184.269,68.769,221.117,64.795C376.707,328.379,411.487,296.662,407.067,214.032z"/>
		<path style="opacity:0.9;fill:#FFFFFF;" d="M407.067,214.032c-3.417-57.531-33.982-98.828-78.69-91.748
			c-54.256,11.455-96.053,69.415-153.59,46.218c-81.776-48.215-107.651,69.007-93.705,101.374
			c27.018,72.555,184.269,68.769,221.117,64.795C376.707,328.379,411.487,296.662,407.067,214.032z"/>
	</g>
</g>
<g id="Shadow_1_">
	<ellipse id="_x3C_Path_x3E__15_" style="fill:#F5F5F5;" cx="250" cy="416.238" rx="193.889" ry="11.323"/>
</g>
<g id="Desk">
	<g>
		<g>
			<path style="fill:#263238;" d="M335.944,284.084h-1V230.39c0-2.099,1.707-3.806,3.806-3.806v1c-1.547,0-2.806,1.259-2.806,2.806
				V284.084z"/>
			<path style="fill:#263238;" d="M335,302.207H190.304c-6.088,0-11.041-4.953-11.041-11.041v-9.97h1v9.97
				c0,5.537,4.504,10.041,10.041,10.041H335V302.207z"/>
			<path style="fill:#263238;" d="M271.673,302.207c-6.088,0-11.041-4.953-11.041-11.041v-9.97h1v9.97
				c0,5.537,4.504,10.041,10.041,10.041V302.207z"/>
			<rect x="329.667" y="257.278" style="fill:#263238;" width="9.083" height="1"/>
			<rect x="329.667" y="253.026" style="fill:#263238;" width="9.083" height="1"/>
			<rect x="329.667" y="248.774" style="fill:#263238;" width="9.083" height="1"/>
		</g>
		<g>
			<rect x="65.627" y="282.529" style="fill:#407BFF;" width="368.747" height="4"/>
			<rect x="69.32" y="286.529" style="fill:#407BFF;" width="14.014" height="125.016"/>
			<rect x="81.333" y="286.529" style="opacity:0.4;" width="2" height="125.016"/>
			<rect x="69.32" y="286.529" style="opacity:0.2;" width="14.014" height="2.222"/>
			<rect x="65.627" y="282.529" style="opacity:0.4;" width="21.4" height="4"/>
		</g>
		<g>
			<rect x="324.004" y="286.529" style="fill:#407BFF;" width="104.322" height="125.016"/>
			<rect x="363.171" y="386.208" style="opacity:0.2;" width="65.155" height="0.972"/>
			<rect x="363.171" y="361.844" style="opacity:0.2;" width="65.155" height="0.972"/>
			<rect x="363.171" y="337.479" style="opacity:0.2;" width="65.155" height="0.972"/>
			<rect x="363.171" y="313.115" style="opacity:0.2;" width="65.155" height="0.972"/>
			<rect x="385.497" y="367.732" style="opacity:0.2;" width="20.503" height="0.972"/>
			<rect x="385.497" y="343.368" style="opacity:0.2;" width="20.503" height="0.972"/>
			<rect x="385.497" y="392.097" style="opacity:0.2;" width="20.503" height="0.972"/>
			<rect x="385.497" y="319.004" style="opacity:0.2;" width="20.503" height="0.972"/>
			<rect x="385.497" y="294.64" style="opacity:0.2;" width="20.503" height="0.972"/>
			<rect x="324.004" y="286.529" style="opacity:0.4;" width="39.167" height="125.016"/>
			<rect x="324.004" y="286.529" style="opacity:0.2;" width="104.322" height="2.222"/>
		</g>
		<g>
			<rect x="337.581" y="214.084" style="fill:#263238;" width="88.555" height="68.444"/>
			
				<rect x="403.803" y="214.084" transform="matrix(-1 -1.224647e-16 1.224647e-16 -1 829.9397 496.6126)" style="opacity:0.3;" width="22.333" height="68.444"/>
			<rect x="341.137" y="217.759" style="opacity:0.4;fill:#407BFF;" width="59.111" height="48.325"/>
			<rect x="355.248" y="217.759" style="opacity:0.4;fill:#407BFF;" width="45" height="48.325"/>
			<rect x="356.885" y="219.828" style="opacity:0.8;fill:#263238;" width="33.308" height="40.978"/>
			<rect x="374.345" y="223.362" style="opacity:0.1;fill:#407BFF;" width="14.013" height="28.52"/>
			<rect x="361.691" y="237.917" style="opacity:0.1;fill:#407BFF;" width="11.28" height="11.902"/>
			<rect x="358.385" y="220.939" style="opacity:0.1;fill:#407BFF;" width="5.64" height="0.725"/>
			<rect x="358.385" y="222.357" style="opacity:0.1;fill:#407BFF;" width="5.64" height="0.725"/>
			<rect x="358.385" y="223.774" style="opacity:0.1;fill:#407BFF;" width="5.64" height="0.725"/>
			<rect x="358.385" y="225.191" style="opacity:0.1;fill:#407BFF;" width="5.64" height="0.725"/>
			<path style="fill:#FFFFFF;" d="M390.193,261.056c-0.138,0-0.25-0.112-0.25-0.25v-40.728h-33.059c-0.138,0-0.25-0.112-0.25-0.25
				s0.112-0.25,0.25-0.25h33.309c0.138,0,0.25,0.112,0.25,0.25v40.978C390.443,260.944,390.331,261.056,390.193,261.056z"/>
			<g style="opacity:0.4;">
				<g>
					<rect x="375.347" y="227.945" style="fill:#407BFF;" width="3.843" height="17.361"/>
					<rect x="375.347" y="227.945" style="fill:#263238;" width="0.634" height="17.361"/>
				</g>
				<g>
					<rect x="376.977" y="227.945" style="fill:#407BFF;" width="3.843" height="17.361"/>
					<rect x="376.977" y="227.945" style="fill:#263238;" width="0.634" height="17.361"/>
				</g>
				<g>
					<rect x="378.599" y="227.945" style="fill:#407BFF;" width="3.843" height="17.361"/>
					<rect x="378.599" y="227.945" style="fill:#263238;" width="0.634" height="17.361"/>
				</g>
				<g>
					<rect x="380.229" y="227.945" style="fill:#407BFF;" width="3.843" height="17.361"/>
					<rect x="380.229" y="227.945" style="fill:#263238;" width="0.634" height="17.361"/>
				</g>
			</g>
			<rect x="341.137" y="266.084" style="opacity:0.3;fill:#407BFF;" width="59.111" height="12.769"/>
			<rect x="341.137" y="266.084" style="opacity:0.3;fill:#407BFF;" width="55.639" height="12.769"/>
			<rect x="348.442" y="252.848" style="fill:#263238;" width="27.25" height="3.917"/>
			<rect x="348.442" y="226.57" style="fill:#263238;" width="23.806" height="20.458"/>
			<rect x="367.525" y="252.848" style="opacity:0.3;" width="8.167" height="3.917"/>
			<ellipse style="opacity:0.5;fill:#407BFF;" cx="365.678" cy="236.799" rx="5.014" ry="9.039"/>
			<path style="opacity:0.5;fill:#407BFF;" d="M367.859,236.799c0,2.171-0.976,3.931-2.181,3.931c-1.204,0-2.181-1.76-2.181-3.931
				s0.976-3.931,2.181-3.931C366.883,232.868,367.859,234.628,367.859,236.799z"/>
			<path style="fill:#FFFFFF;" d="M367.331,236.799c0,1.646-0.74,2.98-1.653,2.98c-0.913,0-1.653-1.334-1.653-2.98
				s0.74-2.98,1.653-2.98C366.591,233.82,367.331,235.154,367.331,236.799z"/>
			<path style="fill:#FFFFFF;" d="M365.678,246.088c-0.138,0-0.25-0.112-0.25-0.25s0.112-0.25,0.25-0.25
				c2.627,0,4.765-3.943,4.765-8.789c0-0.138,0.112-0.25,0.25-0.25c0.138,0,0.25,0.112,0.25,0.25
				C370.942,241.921,368.581,246.088,365.678,246.088z"/>
			<path style="fill:#FFFFFF;" d="M360.664,237.049c-0.138,0-0.25-0.112-0.25-0.25c0-5.122,2.361-9.289,5.264-9.289
				c0.138,0,0.25,0.112,0.25,0.25c0,0.138-0.112,0.25-0.25,0.25c-2.627,0-4.764,3.943-4.764,8.789
				C360.914,236.938,360.802,237.049,360.664,237.049z"/>
			<polygon style="fill:#263238;" points="400.248,265.028 378.803,265.028 378.803,255.528 370.358,255.528 370.358,254.528 
				379.803,254.528 379.803,264.028 400.248,264.028 			"/>
			<polygon style="fill:#263238;" points="381.929,264.528 380.929,264.528 380.929,255.528 372.484,255.528 372.484,254.528 
				381.929,254.528 			"/>
			<polygon style="fill:#263238;" points="384.055,264.528 383.055,264.528 383.055,255.528 374.61,255.528 374.61,254.528 
				384.055,254.528 			"/>
			<path style="opacity:0.5;fill:#407BFF;" d="M424.623,217.306c0,1.104-0.746,2-1.667,2c-0.921,0-1.667-0.896-1.667-2
				c0-1.105,0.746-2,1.667-2C423.876,215.306,424.623,216.202,424.623,217.306z"/>
			<path style="opacity:0.5;fill:#407BFF;" d="M419.025,217.306c0,0.294-0.199,0.533-0.444,0.533c-0.245,0-0.444-0.239-0.444-0.533
				c0-0.295,0.199-0.533,0.444-0.533C418.826,216.773,419.025,217.012,419.025,217.306z"/>
			<path style="opacity:0.5;fill:#407BFF;" d="M416.918,217.306c0,0.294-0.199,0.533-0.444,0.533c-0.245,0-0.444-0.239-0.444-0.533
				c0-0.295,0.199-0.533,0.444-0.533C416.719,216.773,416.918,217.012,416.918,217.306z"/>
		</g>
		<path style="fill:#FFFFFF;" d="M374.08,255.056h-9.944c-0.138,0-0.25-0.112-0.25-0.25c0-0.138,0.112-0.25,0.25-0.25h9.944
			c0.138,0,0.25,0.112,0.25,0.25C374.33,254.944,374.218,255.056,374.08,255.056z"/>
		<g>
			<g>
				<g>
					<rect x="169.653" y="201.256" style="fill:#407BFF;" width="93.278" height="58.522"/>
					
						<rect x="189.03" y="185.878" transform="matrix(-1.836970e-16 1 -1 -1.836970e-16 446.8086 14.2261)" style="opacity:0.7;fill:#263238;" width="54.522" height="89.278"/>
				</g>
				<g>
					<rect x="112.43" y="201.256" style="fill:#407BFF;" width="57.222" height="58.522"/>
					
						<rect x="110.18" y="201.256" transform="matrix(-1 -1.224647e-16 1.224647e-16 -1 222.6106 461.0349)" style="fill:#263238;" width="2.25" height="58.522"/>
					
						<rect x="113.78" y="203.35" transform="matrix(-1.836970e-16 1 -1 -1.836970e-16 371.5587 89.476)" style="opacity:0.7;fill:#263238;" width="54.522" height="54.335"/>
				</g>
				<g>
					<rect x="262.931" y="201.256" style="fill:#407BFF;" width="67.333" height="58.522"/>
					
						<rect x="269.336" y="198.294" transform="matrix(-1.836970e-16 1 -1 -1.836970e-16 527.1142 -66.0796)" style="opacity:0.7;fill:#263238;" width="54.522" height="64.446"/>
				</g>
			</g>
			<g>
				<polygon style="fill:#FFFFFF;" points="218.846,250.306 217.113,250.306 216.899,249.251 215.683,249.251 215.47,250.306 
					213.736,250.306 212.318,251.973 212.318,254.751 220.264,254.751 220.264,251.973 				"/>
				<rect x="215.846" y="243.598" style="fill:#FFFFFF;" width="0.89" height="3.083"/>
				<rect x="212.318" y="235.64" style="fill:#FFFFFF;" width="0.89" height="3.083"/>
				<rect x="208.263" y="228.976" style="fill:#FFFFFF;" width="0.89" height="3.083"/>
				<g>
					<rect x="174.763" y="206.723" style="fill:#407BFF;" width="9.179" height="3.167"/>
					<rect x="195.871" y="206.723" style="fill:#407BFF;" width="9.179" height="3.167"/>
					<rect x="227.533" y="206.723" style="fill:#407BFF;" width="9.179" height="3.167"/>
					<rect x="238.087" y="206.723" style="fill:#407BFF;" width="9.179" height="3.167"/>
					<rect x="248.641" y="206.723" style="fill:#407BFF;" width="9.179" height="3.167"/>
				</g>
				<g>
					<rect x="185.317" y="210.975" style="fill:#407BFF;" width="9.179" height="3.167"/>
					<rect x="206.425" y="210.975" style="fill:#407BFF;" width="9.179" height="3.167"/>
				</g>
				<g>
					<rect x="195.871" y="215.227" style="fill:#407BFF;" width="9.179" height="3.167"/>
					<rect x="248.641" y="215.227" style="fill:#407BFF;" width="9.179" height="3.167"/>
				</g>
				<g>
					<rect x="174.763" y="219.479" style="fill:#407BFF;" width="9.179" height="3.167"/>
				</g>
				<g>
					
						<rect x="320.605" y="219.479" transform="matrix(-1 -1.224647e-16 1.224647e-16 -1 648.0078 442.1237)" style="fill:#407BFF;" width="6.798" height="3.167"/>
					
						<rect x="304.972" y="219.479" transform="matrix(-1 -1.224647e-16 1.224647e-16 -1 616.7416 442.1237)" style="fill:#407BFF;" width="6.798" height="3.167"/>
				</g>
				<g>
					
						<rect x="312.788" y="215.227" transform="matrix(-1 -1.224647e-16 1.224647e-16 -1 632.3746 433.6198)" style="fill:#407BFF;" width="6.798" height="3.167"/>
				</g>
				<g>
					
						<rect x="304.972" y="210.975" transform="matrix(-1 -1.224647e-16 1.224647e-16 -1 616.7416 425.1159)" style="fill:#407BFF;" width="6.798" height="3.167"/>
					
						<rect x="265.889" y="210.975" transform="matrix(-1 -1.224647e-16 1.224647e-16 -1 538.5762 425.1159)" style="fill:#407BFF;" width="6.798" height="3.167"/>
				</g>
				<g>
					
						<rect x="320.605" y="206.723" transform="matrix(-1 -1.224647e-16 1.224647e-16 -1 648.0078 416.6119)" style="fill:#407BFF;" width="6.798" height="3.167"/>
				</g>
				<g>
					
						<rect x="161.107" y="206.723" transform="matrix(-1 -1.224647e-16 1.224647e-16 -1 327.9263 416.6124)" style="fill:#407BFF;" width="5.713" height="3.167"/>
					
						<rect x="147.969" y="206.723" transform="matrix(-1 -1.224647e-16 1.224647e-16 -1 301.6509 416.6124)" style="fill:#407BFF;" width="5.713" height="3.167"/>
					
						<rect x="121.694" y="206.723" transform="matrix(-1 -1.224647e-16 1.224647e-16 -1 249.1003 416.6124)" style="fill:#407BFF;" width="5.713" height="3.167"/>
				</g>
				<g>
					
						<rect x="154.538" y="210.975" transform="matrix(-1 -1.224647e-16 1.224647e-16 -1 314.7886 425.1163)" style="fill:#407BFF;" width="5.713" height="3.167"/>
					
						<rect x="141.4" y="210.975" transform="matrix(-1 -1.224647e-16 1.224647e-16 -1 288.5133 425.1163)" style="fill:#407BFF;" width="5.713" height="3.167"/>
				</g>
				<g>
					
						<rect x="115.125" y="215.227" transform="matrix(-1 -1.224647e-16 1.224647e-16 -1 235.9627 433.6203)" style="fill:#407BFF;" width="5.713" height="3.167"/>
				</g>
				<g>
					
						<rect x="161.107" y="219.479" transform="matrix(-1 -1.224647e-16 1.224647e-16 -1 327.9263 442.1242)" style="fill:#407BFF;" width="5.713" height="3.167"/>
				</g>
			</g>
		</g>
		<g>
			<rect x="72.722" y="249.259" style="fill:#263238;" width="47.611" height="33.269"/>
			
				<rect x="98.863" y="249.259" transform="matrix(-1 -1.224647e-16 1.224647e-16 -1 219.1958 531.7876)" style="opacity:0.3;" width="21.471" height="33.269"/>
			<circle style="opacity:0.4;fill:#407BFF;" cx="109.598" cy="260.859" r="7.089"/>
			<path style="opacity:0.2;fill:#407BFF;" d="M113.06,274.694c0,1.912-1.55,3.462-3.462,3.462c-1.912,0-3.463-1.55-3.463-3.462
				c0-1.912,1.55-3.462,3.463-3.462C111.51,271.232,113.06,272.782,113.06,274.694z"/>
		</g>
		<g>
			<polygon style="fill:#263238;" points="177.395,282.529 176.111,277.478 186.196,282.529 			"/>
			<polygon style="fill:#407BFF;" points="231.948,277.478 176.111,277.478 186.196,282.528 242.033,282.528 			"/>
		</g>
		<path style="fill:#263238;" d="M258.042,282.529c0,0-2.164-5.305,6.634-5.538c8.797-0.233,14.991,5.538,14.991,5.538H258.042z"/>
	</g>
</g>
<g id="Character_1_">
	<g>
		<g>
			<g>
				<g>
					<g>
						<g>
							<polygon style="fill:#7F3E3B;" points="240.852,406.046 233.565,403.873 235.259,386.004 242.546,388.177 							"/>
							<path style="fill:#263238;" d="M232.808,402.664l8.426,1.402c0.307,0.051,0.502,0.302,0.471,0.605l-0.7,6.735
								c-0.073,0.699-0.83,1.245-1.535,1.115c-2.925-0.538-4.298-0.944-8.004-1.56c-2.28-0.379-7.483-1.31-10.66-1.614
								c-3.107-0.297-2.786-3.436-1.412-3.592c6.159-0.699,9.651-1.533,12.045-2.844C231.872,402.674,232.36,402.59,232.808,402.664
								z"/>
							<g>
								<polygon style="opacity:0.2;" points="242.547,388.182 235.257,386.009 234.312,396.025 241.677,397.394 								"/>
							</g>
							<g>
								<path style="fill:#407BFF;" d="M283.974,295.679c0,0-50.133,4.234-48.9,26.003c1.35,23.839-3.223,70.495-3.223,70.495
									l12.728,2.389c0,0,14.384-49.567,12.686-66.789c14.13,0,46.483,1.237,51.184-11.509c3.846-10.427,3.349-20.201,3.349-20.201
									L283.974,295.679z"/>
								<path style="opacity:0.2;fill:#FFFFFF;" d="M283.974,295.679c0,0-50.133,4.234-48.9,26.003
									c1.35,23.839-3.223,70.495-3.223,70.495l12.728,2.389c0,0,14.384-49.567,12.686-66.789c14.13,0,46.483,1.237,51.184-11.509
									c3.846-10.427,3.349-20.201,3.349-20.201L283.974,295.679z"/>
							</g>
							<polygon style="fill:#407BFF;" points="246.288,396.01 229.806,393.194 230.078,385.905 247.143,389.688 							"/>
							<path style="fill:#407BFF;" d="M229.932,403.529c0.693,0.115,1.483,0.1,2.043,0.064c0.07-0.004,0.131-0.049,0.155-0.115
								c0.024-0.066,0.007-0.139-0.042-0.188c-0.212-0.206-2.094-2.011-3.069-1.804c-0.226,0.048-0.396,0.195-0.489,0.427
								c-0.155,0.382-0.135,0.714,0.061,0.985C228.839,403.244,229.351,403.432,229.932,403.529z M231.537,403.26
								c-1.386,0.044-2.367-0.162-2.66-0.568c-0.121-0.168-0.128-0.379-0.02-0.645c0.05-0.123,0.124-0.191,0.234-0.213
								C229.617,401.722,230.759,402.561,231.537,403.26z"/>
							<path style="fill:#407BFF;" d="M231.935,403.591c0.027,0.005,0.056,0.003,0.083-0.006c0.058-0.019,0.102-0.066,0.117-0.125
								c0.023-0.09,0.55-2.219-0.086-3.074c-0.171-0.23-0.407-0.354-0.7-0.367c-0.352-0.016-0.609,0.135-0.722,0.424
								c-0.309,0.789,0.549,2.541,1.222,3.11C231.875,403.573,231.904,403.586,231.935,403.591z M231.416,400.38
								c0.145,0.024,0.26,0.095,0.35,0.216c0.38,0.51,0.236,1.756,0.096,2.465c-0.561-0.659-1.107-1.973-0.904-2.49
								c0.038-0.099,0.116-0.211,0.376-0.199C231.362,400.373,231.39,400.376,231.416,400.38z"/>
						</g>
						<g>
							<polygon style="fill:#7F3E3B;" points="208.347,408.835 201.406,405.713 206.21,388.586 213.152,391.708 							"/>
							<path style="fill:#263238;" d="M202.101,402.886l8.435,1.35c0.307,0.049,0.504,0.299,0.475,0.602l-0.659,6.739
								c-0.068,0.699-0.823,1.25-1.528,1.125c-2.928-0.521-4.304-0.918-8.013-1.512c-2.282-0.365-8.493-1.525-11.623-2.149
								c-3.061-0.61-2.424-3.701-1.041-3.717c6.198-0.071,10.201-0.859,12.588-2.184
								C201.165,402.902,201.652,402.814,202.101,402.886z"/>
							<g>
								<polygon style="opacity:0.2;" points="213.152,391.713 206.208,388.59 203.735,397.42 210.679,400.543 								"/>
							</g>
							<g>
								<path style="fill:#407BFF;" d="M269.077,295.679c-0.33,0.017-56.196,5.752-56.269,24.7
									c-0.121,31.34-11.22,70.586-11.22,70.586l12.917,5.205c0,0,19.5-41.969,19.219-66.431
									c15.361-4.408,55.127,3.012,59.828-9.734c3.846-10.427,1.766-24.326,1.766-24.326H269.077z"/>
								<path style="opacity:0.4;fill:#FFFFFF;" d="M269.077,295.679c-0.33,0.017-56.196,5.752-56.269,24.7
									c-0.121,31.34-11.22,70.586-11.22,70.586l12.917,5.205c0,0,19.5-41.969,19.219-66.431
									c15.361-4.408,55.127,3.012,59.828-9.734c3.846-10.427,1.766-24.326,1.766-24.326H269.077z"/>
							</g>
							<polygon style="fill:#407BFF;" points="214.662,399.932 199.858,393.275 201.051,387.206 216.663,392.603 							"/>
							<path style="fill:#407BFF;" d="M199.231,403.768c0.693,0.111,1.484,0.091,2.044,0.052c0.07-0.004,0.13-0.05,0.154-0.116
								c0.024-0.066,0.007-0.139-0.043-0.188c-0.213-0.205-2.106-1.998-3.08-1.785c-0.226,0.049-0.394,0.198-0.487,0.43
								c-0.153,0.383-0.13,0.715,0.067,0.984C198.136,403.49,198.649,403.675,199.231,403.768z M200.834,403.489
								c-1.386,0.053-2.368-0.147-2.663-0.552c-0.122-0.168-0.13-0.378-0.024-0.645c0.049-0.123,0.123-0.191,0.233-0.215
								C198.904,401.963,200.052,402.796,200.834,403.489z"/>
							<path style="fill:#407BFF;" d="M201.234,403.818c0.027,0.004,0.056,0.002,0.083-0.006c0.058-0.019,0.102-0.066,0.117-0.126
								c0.022-0.09,0.536-2.223-0.104-3.074c-0.173-0.229-0.409-0.351-0.703-0.363c-0.352-0.014-0.608,0.138-0.719,0.428
								c-0.304,0.791,0.565,2.537,1.241,3.103C201.173,403.8,201.203,403.813,201.234,403.818z M200.695,400.611
								c0.145,0.023,0.261,0.094,0.351,0.214c0.383,0.508,0.246,1.754,0.111,2.464c-0.564-0.656-1.119-1.966-0.919-2.485
								c0.038-0.099,0.115-0.211,0.374-0.201C200.641,400.604,200.669,400.607,200.695,400.611z"/>
						</g>
						<path style="fill:#7F3E3B;" d="M289.77,205.441l-4.244,4.912l-5.777,6.696c0.348,0.874,0.655,1.767,0.88,2.639
							c0.97,3.578,0.584,7.047-4.558,9.21c0,0-4.44,5.803,6.116,4.188c10.556-1.615,12.151-7.133,12.151-7.133
							C289.665,222.669,289.397,211.604,289.77,205.441z"/>
						<g>
							<path style="fill:#7F3E3B;" d="M301.824,232.776c1.463,3.165,2.675,6.206,3.882,9.363c1.203,3.134,2.288,6.321,3.277,9.566
								c0.986,3.247,1.845,6.559,2.537,9.984c0.656,3.442,1.175,6.965,1.119,10.874c-0.044,1.96-0.237,4.03-0.95,6.328
								c-0.363,1.143-0.875,2.355-1.673,3.554c-0.402,0.601-0.852,1.179-1.425,1.745l-0.428,0.417
								c-0.241,0.206-0.508,0.42-0.753,0.59c-0.472,0.32-0.919,0.558-1.336,0.747c-0.832,0.371-1.521,0.547-2.165,0.687
								c-0.644,0.137-1.224,0.214-1.774,0.256c-1.103,0.09-2.092,0.082-3.046,0.04c-1.9-0.091-3.658-0.302-5.378-0.601
								c-6.843-1.191-13.136-3.135-19.416-5.552l1.456-5.518c6.351,0.763,12.83,1.576,18.942,1.851
								c1.519,0.043,3.015,0.075,4.373-0.019c0.675-0.044,1.317-0.12,1.83-0.229c0.503-0.091,0.932-0.272,0.779-0.255
								c-0.05,0.012-0.142,0.049-0.279,0.138c-0.08,0.05-0.194,0.13-0.275,0.209c-0.002-0.009-0.003-0.016-0.002-0.021
								c0.003-0.01,0.048-0.085,0.086-0.168c0.086-0.17,0.207-0.477,0.306-0.893c0.21-0.833,0.292-2.045,0.263-3.336
								c-0.061-2.616-0.585-5.565-1.265-8.492c-0.676-2.947-1.557-5.921-2.519-8.891c-0.958-2.973-2.035-5.936-3.14-8.895
								c-1.109-2.934-2.34-5.935-3.522-8.726L301.824,232.776z"/>
							<g>
								<path style="fill:#407BFF;" d="M293.514,228.65c-6.111,3.439-12.611,16.855-12.611,16.855l14.5,14.75
									c5.345-5.057,13.15-17.58,14.025-22.589C310.772,229.973,303.255,223.169,293.514,228.65z"/>
							</g>
							<path style="fill:#7F3E3B;" d="M278.515,276.725l-6.637-3.778l-3.33,7.179c0,0,7.75,3.239,9.386,1.214L278.515,276.725z"/>
							<polygon style="fill:#7F3E3B;" points="266.515,274.363 263.476,279.157 268.548,280.125 271.878,272.947 							"/>
						</g>
						<g>
							<path style="fill:#407BFF;" d="M308.674,228.84c-0.756-2.015-4.251-4.005-6.403-3.988c-0.448,0.004-0.923,0.01-1.42,0.021
								c-2.477,0.051-5.573,0.194-8.57,0.55c-5.159,0.614-12.601,1.693-17.045,2.853c-2.579,0.681-5.066,1.545-7.043,2.281
								c-2.522,0.963-3.984,1.67-3.984,1.67s4.204,44.431,4.914,63.84h42.675c1.468-8.335,0.514-23.601,0.632-38.659
								C312.502,248.34,311.764,237.075,308.674,228.84z"/>
						</g>
						<path style="opacity:0.2;" d="M266.405,256.93c0.32,3.83,0.65,7.85,0.97,11.87c5-7.3,7.77-19.88,7.77-19.88L266.405,256.93z"
							/>
						<g>
							<path style="fill:#7F3E3B;" d="M272.602,240.916c-1.268,3.193-2.604,6.241-3.976,9.329c-1.358,3.082-2.798,6.131-4.279,9.17
								c-2.997,6.073-6.131,12.07-9.952,17.975c-0.957,1.481-1.97,2.947-3.119,4.42c-0.558,0.735-1.175,1.473-1.838,2.217
								c-0.358,0.379-0.646,0.731-1.065,1.127l-0.6,0.578l-0.34,0.317c-0.243,0.204-0.532,0.435-0.762,0.583
								c-0.969,0.64-1.792,0.936-2.516,1.158c-0.721,0.21-1.349,0.321-1.949,0.406c-1.185,0.148-2.222,0.162-3.213,0.137
								c-1.976-0.061-3.777-0.259-5.541-0.552c-7.004-1.178-13.418-3.158-19.823-5.621l1.456-5.518
								c6.475,0.776,13.088,1.61,19.302,1.863c1.541,0.036,3.061,0.062,4.408-0.061c0.669-0.055,1.294-0.151,1.749-0.271
								c0.219-0.055,0.405-0.117,0.476-0.159c0.064-0.035,0.013-0.068-0.271,0.101c-0.055,0.037-0.192,0.124-0.271,0.201
								c-0.023,0.017,0.072-0.085,0.103-0.121l0.279-0.305c0.182-0.178,0.404-0.486,0.605-0.72c0.413-0.521,0.838-1.078,1.251-1.691
								c0.835-1.194,1.644-2.51,2.442-3.848c1.597-2.684,3.092-5.529,4.546-8.412c1.466-2.879,2.864-5.819,4.246-8.776
								c2.75-5.904,5.441-11.95,7.992-17.901L272.602,240.916z"/>
							<g>
								<path style="fill:#407BFF;" d="M264.21,232.228c-6.111,3.439-12.611,16.855-12.611,16.855l14.5,14.75
									c5.345-5.057,13.15-17.58,14.025-22.589C281.468,233.551,273.951,226.747,264.21,232.228z"/>
							</g>
							<path style="fill:#7F3E3B;" d="M217.848,278.112l-6.637-3.778l-3.33,7.179c0,0,7.75,3.239,9.386,1.214L217.848,278.112z"/>
							<polygon style="fill:#7F3E3B;" points="205.848,275.75 202.81,280.543 207.881,281.512 211.211,274.333 							"/>
						</g>
						<path style="fill:#263238;" d="M268.241,199.902c0.008,0.663-0.335,1.217-0.768,1.238c-0.432,0.021-0.79-0.5-0.799-1.163
							c-0.009-0.663,0.335-1.217,0.768-1.238C267.874,198.718,268.232,199.239,268.241,199.902z"/>
						<path style="fill:#263238;" d="M270.451,197.441c-0.124-0.003-0.245-0.065-0.318-0.178c-0.961-1.486-2.408-1.546-2.422-1.547
							c-0.215-0.006-0.384-0.186-0.377-0.4c0.006-0.214,0.185-0.382,0.398-0.377c0,0,0.002,0,0.002,0
							c0.076,0.002,1.872,0.077,3.052,1.902c0.117,0.18,0.065,0.421-0.115,0.538C270.603,197.423,270.526,197.443,270.451,197.441z"
							/>
						<path style="fill:#630F0F;" d="M267.985,200.271c0,0-1.014,3.392-2.292,5.12c1.066,0.815,2.717,0.197,2.717,0.197
							L267.985,200.271z"/>
						<path style="fill:#7F3E3B;" d="M290.373,196.567c-0.395,8.165-0.212,12.949-4.263,17.323
							c-6.094,6.579-16.174,3.328-18.217-4.706c-1.839-7.231-0.885-19.368,7.029-22.986
							C282.718,182.633,290.767,188.402,290.373,196.567z"/>
						<path style="fill:#263238;" d="M271.987,201.5c-1.778-1.5-0.5-6.944,0.945-8.111c-4,0.222-10.81-2.222-7.238-9.778
							c3.572-7.555,11.131-2,12.184,0c5.721-0.111,9.054-6.722,13.721-1.5c4.667,5.222-0.481,6.556-0.481,6.556
							s5.843,1.104,2.94,10.625c-1.592,5.223-5.292,9.5-5.292,9.5l-10.625,2.042C278.14,210.833,269.765,207.278,271.987,201.5z"/>
						<path style="fill:#7F3E3B;" d="M276.692,202.255c-0.341,2.258-1.439,4.197-2.642,5.348c-1.809,1.731-3.346,0.013-3.373-2.632
							c-0.024-2.381,0.888-6.15,2.959-6.847C275.677,197.438,277.082,199.673,276.692,202.255z"/>
					</g>
				</g>
			</g>
		</g>
		<g>
			<g>
				<path style="fill:#263238;" d="M247.247,326.348h60.898v20.066h-70.818c-5.58,0-9.041-6.07-6.2-10.872h0
					C234.498,329.844,240.627,326.348,247.247,326.348z"/>
				<path style="fill:#263238;" d="M275.156,313.173c-12.291-4.297-25.684-4.296-37.975,0c-2.578,0.892-5.553-0.13-6.694-2.549l0,0
					c-1.137-2.411,0.387-5.538,3.489-6.619c14.365-5.021,30.019-5.021,44.384,0c3.1,1.08,4.628,4.208,3.489,6.619l0,0
					C280.71,313.042,277.732,314.066,275.156,313.173z"/>
				<rect x="253.376" y="305.886" style="fill:#263238;" width="5.588" height="23.853"/>
				<path style="fill:#263238;" d="M357.223,216.352l-16.426-17.559c-1.448-1.547-3.49-2.417-5.675-2.417h-7.042h-18.407h-7.042
					c-2.186,0-4.335,0.87-5.973,2.417l-18.592,17.559c-5.262,4.969-7.937,12.032-7.178,18.949l3.505,31.94
					c0.338,3.083,1.635,5.927,3.71,8.139l0.647,0.689c2.661,2.836,4.017,6.683,3.77,10.694l-0.74,12.005
					c-0.247,4.011-2.078,7.858-5.089,10.694c-3.011,2.836-4.842,6.683-5.089,10.694l-1.252,20.304
					c-0.203,3.287,2.298,5.952,5.585,5.952h7.042h53.294h7.042c3.287,0,6.117-2.665,6.319-5.952l1.252-20.304
					c0.247-4.011-1.109-7.858-3.77-10.694l0,0c-2.661-2.836-4.018-6.683-3.77-10.694l0.74-12.005
					c0.247-4.011,2.078-7.858,5.089-10.694l0.732-0.689c2.349-2.212,3.995-5.056,4.714-8.139l7.445-31.94
					C363.676,228.384,361.872,221.322,357.223,216.352z"/>
				<path style="opacity:0.5;" d="M349.173,276.07l0.732-0.69c2.348-2.212,3.995-5.055,4.714-8.139l7.445-31.94
					c1.612-6.917-0.192-13.979-4.841-18.949l-16.426-17.559c-1.448-1.548-3.49-2.417-5.675-2.417h-25.45
					c-2.185,0-4.335,0.87-5.973,2.417l-18.592,17.559c-5.262,4.969-7.937,12.032-7.178,18.949l3.505,31.94
					c0.338,3.083,1.635,5.927,3.71,8.139l0.647,0.69c2.661,2.836,4.017,6.683,3.77,10.694l-0.74,12.006
					c-0.247,4.011-2.078,7.858-5.089,10.694l0,0c-3.011,2.836-4.842,6.683-5.089,10.694l-1.252,20.304
					c-0.203,3.287,2.298,5.952,5.585,5.952h60.336c3.287,0,6.117-2.665,6.319-5.952l1.252-20.304
					c0.247-4.011-1.109-7.858-3.77-10.694h0c-2.661-2.836-4.017-6.683-3.77-10.694l0.741-12.006
					C344.331,282.753,346.161,278.906,349.173,276.07z"/>
			</g>
			<g>
				<rect x="286.814" y="364.326" style="fill:#263238;" width="15.435" height="38.506"/>
				<rect x="289.029" y="346.414" style="fill:#263238;" width="11.005" height="17.912"/>
				<polygon style="opacity:0.5;" points="300.034,346.414 289.029,346.414 289.029,354.444 300.034,351.667 				"/>
				<g>
					<path style="fill:#263238;" d="M294.531,411.237v-8.405h-12.457c-2.447,0-4.889,0.226-7.295,0.676l-28.475,5.319
						c-2.572,0.48-2.148,4.285,0.466,4.188L294.531,411.237z"/>
					<path style="fill:#263238;" d="M256.502,416.035c0,2.4-1.945,4.345-4.345,4.345s-4.345-1.945-4.345-4.345
						s1.945-4.345,4.345-4.345S256.502,413.636,256.502,416.035z"/>
					<path d="M254.117,416.035c0,2.4-1.945,4.345-4.345,4.345s-4.345-1.945-4.345-4.345s1.945-4.345,4.345-4.345
						S254.117,413.636,254.117,416.035z"/>
				</g>
				<g>
					<path style="fill:#263238;" d="M294.531,411.237v-8.405h12.457c2.447,0,4.889,0.226,7.295,0.676l28.475,5.319
						c2.572,0.48,2.148,4.285-0.466,4.188L294.531,411.237z"/>
					<path style="fill:#263238;" d="M334.946,416.035c0,2.4,1.945,4.345,4.345,4.345c2.4,0,4.345-1.945,4.345-4.345
						s-1.945-4.345-4.345-4.345C336.891,411.691,334.946,413.636,334.946,416.035z"/>
					<path d="M332.561,416.035c0,2.4,1.945,4.345,4.345,4.345c2.4,0,4.345-1.945,4.345-4.345s-1.945-4.345-4.345-4.345
						C334.506,411.691,332.561,413.636,332.561,416.035z"/>
					<path d="M288.994,416.035c0,2.4,1.945,4.345,4.345,4.345s4.345-1.945,4.345-4.345s-1.945-4.345-4.345-4.345
						S288.994,413.636,288.994,416.035z"/>
					<path style="fill:#263238;" d="M291.379,416.035c0,2.4,1.945,4.345,4.345,4.345c2.399,0,4.345-1.945,4.345-4.345
						s-1.945-4.345-4.345-4.345C293.325,411.691,291.379,413.636,291.379,416.035z"/>
				</g>
				<path style="fill:#263238;" d="M294.531,413.508L294.531,413.508c-2.214,0-4.026-1.812-4.026-4.026v-0.808
					c0-2.214,1.812-4.026,4.026-4.026l0,0c2.214,0,4.026,1.812,4.026,4.026v0.808C298.557,411.697,296.746,413.508,294.531,413.508z
					"/>
			</g>
		</g>
	</g>
</g>
</svg>
